<svg width="115" height="161" viewBox="0 0 115 161" fill="none" xmlns="http://www.w3.org/2000/svg">
<path d="M1.30688 34.7903V35.0442L31.0183 54.773L38.1287 59.5067L41.43 61.0736L44.7312 59.2221L51.3337 54.8797L54.2279 52.5206L54.381 47.7413V37.0757V0L48.2864 3.62632L37.8747 10.4955L14.512 25.981L1.30688 34.7903Z" fill="#FCD57A"/>
<path d="M1.30688 35.0442V73.136V83.5475L1.56794 87.8186L5.87788 90.9955L17.0514 98.1997L54.1271 122.654C55.2307 118.922 54.381 113.853 54.381 109.957V83.2934V73.8973C54.381 72.7318 54.715 70.9263 54.12 69.8803C53.3802 68.5826 51.2796 67.681 50.064 66.8708C46.5634 64.5374 42.8952 62.4674 39.3984 60.1847C26.7586 51.9264 14.4947 42.3857 1.30688 35.0442Z" fill="#DD47CC"/>
<path d="M60.2219 38.3455V77.199V87.3564C60.2219 88.5426 59.8861 90.3556 60.629 91.3664C62.5725 94.0126 67.4284 95.9549 70.1257 97.8392C71.0072 98.4562 72.2722 99.6574 73.4268 99.513C75.9091 99.2054 78.998 96.1711 81.045 94.8049C87.1273 90.7518 93.2476 86.7549 99.3288 82.7018L109.233 76.099C110.536 75.2308 112.56 74.4511 113.042 72.8819C100.358 65.6875 88.3619 56.7462 76.2202 48.6683C71.2895 45.3873 65.8362 40.2653 60.2219 38.3455Z" fill="#FCD57A"/>
<path d="M113.042 73.1355C110.368 76.3635 105.116 78.6745 101.615 81.0078C92.8378 86.859 84.13 92.8948 75.2043 98.5171C70.7337 101.331 64.3828 103.782 60.8103 107.756C59.9426 108.721 60.2221 110.28 60.2221 111.481V120.877V148.049C60.2221 152.018 59.3515 157.196 60.4757 161C64.5127 159.091 68.149 155.975 71.9032 153.557C80.7686 147.848 89.5379 141.962 98.3135 136.114L108.725 129.173C109.995 128.325 112.204 127.386 113.035 126.078C113.618 125.159 113.296 123.447 113.296 122.401V113.259V85.0708C113.296 81.7064 114.34 76.2261 113.042 73.1355Z" fill="#DD47CC"/>
</svg>
