<svg width="20" height="20" viewBox="0 0 20 20" fill="none" xmlns="http://www.w3.org/2000/svg">
<path d="M3.74999 16.25C3.74895 16.0035 3.79674 15.7592 3.89061 15.5312C3.98447 15.3033 4.12254 15.0962 4.29686 14.9219C4.47117 14.7475 4.67828 14.6095 4.90623 14.5156C5.13419 14.4217 5.37847 14.374 5.62499 14.375H16.25V2.49999H5.62499C5.37847 2.49895 5.13419 2.54674 4.90623 2.64061C4.67828 2.73447 4.47117 2.87254 4.29686 3.04686C4.12254 3.22117 3.98447 3.42828 3.89061 3.65623C3.79674 3.88419 3.74895 4.12847 3.74999 4.37499V16.25Z" stroke="white" stroke-width="1.5" stroke-linecap="round" stroke-linejoin="round"/>
<path d="M3.75 16.25V17.5H15" stroke="white" stroke-width="1.5" stroke-linecap="round" stroke-linejoin="round"/>
</svg>
